<?xml version="1.0" encoding="UTF-8" standalone="no"?>
<!-- Created with Inkscape (http://www.inkscape.org/) -->

<svg
   width="93.291451mm"
   height="34.318256mm"
   viewBox="0 0 93.291451 34.318256"
   version="1.1"
   id="svg1"
   inkscape:version="1.3 (0e150ed6c4, 2023-07-21)"
   sodipodi:docname="logo.svg"
   xmlns:inkscape="http://www.inkscape.org/namespaces/inkscape"
   xmlns:sodipodi="http://sodipodi.sourceforge.net/DTD/sodipodi-0.dtd"
   xmlns="http://www.w3.org/2000/svg"
   xmlns:svg="http://www.w3.org/2000/svg">
  <sodipodi:namedview
     id="namedview1"
     pagecolor="#ffffff"
     bordercolor="#999999"
     borderopacity="1"
     inkscape:showpageshadow="2"
     inkscape:pageopacity="0"
     inkscape:pagecheckerboard="0"
     inkscape:deskcolor="#d1d1d1"
     inkscape:document-units="mm"
     inkscape:zoom="0.74029882"
     inkscape:cx="303.25592"
     inkscape:cy="207.3487"
     inkscape:window-width="1920"
     inkscape:window-height="1009"
     inkscape:window-x="-8"
     inkscape:window-y="-8"
     inkscape:window-maximized="1"
     inkscape:current-layer="layer1" />
  <defs
     id="defs1" />
  <g
     inkscape:label="Warstwa 1"
     inkscape:groupmode="layer"
     id="layer1"
     transform="translate(-24.574181,-93.544733)">
    <path
       style="font-size:45.1556px;font-family:Lobster;-inkscape-font-specification:'Lobster, Normal';fill:#ffffff;stroke-width:13.2292"
       d="m 35.276059,96.660469 q -3.070581,1.083735 -4.696183,3.431821 -1.580446,2.30294 -1.580446,5.5993 0,1.44498 0.316089,2.66418 0.316089,1.17405 0.903112,1.94169 -2.889958,0 -4.289782,-1.17404 -1.354668,-1.21921 -1.354668,-3.70276 0,-3.1609 1.85138,-5.870232 1.851379,-2.754492 5.012271,-4.380094 3.160893,-1.625601 6.863652,-1.625601 1.038579,0 1.806224,0.135467 0.767645,0.135466 1.761068,0.496711 l 5.418673,24.158249 5.057427,-24.519494 h 4.380093 l -7.360363,33.776394 h -6.231473 l -5.238049,-22.39718 -5.147739,22.39718 h -4.289782 z m 25.783814,31.112211 q -3.341514,0 -5.283205,-1.71591 -1.941691,-1.71592 -1.941691,-5.41868 0,-3.07058 1.264357,-6.81849 1.264357,-3.74792 4.064004,-6.45725 2.799647,-2.75449 7.044274,-2.75449 5.779917,0 5.779917,7.22489 v 0.0452 q 0.135467,0.0452 0.496711,0.0452 1.490135,0 3.431826,-0.76764 1.941691,-0.8128 3.522137,-1.94169 l 0.406401,1.2192 q -1.309513,1.39982 -3.431826,2.39324 -2.077158,0.94827 -4.560716,1.35467 -0.361245,4.10916 -1.85138,7.17974 -1.490134,3.07058 -3.838226,4.74134 -2.348091,1.67076 -5.102583,1.67076 z m 1.806224,-4.06401 q 1.083735,0 2.167469,-1.2192 1.083735,-1.26435 1.896535,-3.38667 0.812801,-2.16747 1.174046,-4.78649 -1.219201,-0.27093 -1.219201,-1.89654 0,-1.85138 1.399824,-2.4384 -0.09031,-1.49013 -0.451556,-2.032 -0.361245,-0.58702 -1.264357,-0.58702 -1.490135,0 -2.889959,2.16747 -1.399823,2.16746 -2.25778,5.19289 -0.857956,3.02543 -0.857956,5.32836 0,2.16747 0.496711,2.93511 0.496712,0.72249 1.806224,0.72249 z m 15.894738,4.15432 q -2.167469,0 -3.522137,-1.35467 -1.309513,-1.35467 -1.309513,-4.064 0,-1.12889 0.361245,-2.93512 l 2.709336,-12.68872 h -1.490135 l 0.361245,-1.80622 h 1.490135 l 1.354668,-6.231477 6.683029,-0.903113 -1.53529,7.13459 h 2.709336 l -0.361245,1.80622 h -2.709336 l -2.889959,13.54668 q -0.180622,0.67733 -0.180622,1.44498 0,0.90311 0.4064,1.30951 0.451556,0.36125 1.44498,0.36125 1.309512,0 2.438402,-1.08374 1.12889,-1.12889 1.625602,-2.88996 h 1.896535 q -1.670757,4.87681 -4.289782,6.63788 -2.619025,1.71591 -5.192894,1.71591 z m 14.043399,0 q -3.341515,0 -5.192894,-1.71591 -1.85138,-1.76107 -1.85138,-5.46383 0,-3.11574 1.219201,-6.86365 1.219202,-3.74792 3.973693,-6.45725 2.754492,-2.75449 6.999119,-2.75449 4.967117,0 4.967117,4.33493 0,2.52872 -1.44498,4.65103 -1.44498,2.12231 -3.838227,3.43183 -2.393247,1.26435 -5.102583,1.44497 -0.09031,1.35467 -0.09031,1.80623 0,2.21262 0.767645,3.02542 0.767646,0.76765 2.483558,0.76765 2.438403,0 4.154316,-1.12889 1.761071,-1.12889 3.838221,-3.43183 h 1.53529 q -5.01227,8.35379 -12.417786,8.35379 z m 0.09031,-11.55983 q 1.670757,-0.0903 3.160892,-1.17405 1.535291,-1.08373 2.438403,-2.75449 0.948267,-1.67076 0.948267,-3.52214 0,-1.85138 -1.12889,-1.85138 -1.625601,0 -3.206047,2.8448 -1.535291,2.84481 -2.212625,6.45726 z m 15.939966,11.55983 q -2.16747,0 -3.65761,-0.8128 -1.49013,-0.85796 -2.21262,-2.16747 -0.72249,-1.35467 -0.72249,-2.79965 0,-1.49013 0.72249,-2.57387 0.67733,-1.12889 1.67076,-1.6256 1.76107,-3.16089 3.07058,-6.36694 1.30951,-3.2512 2.48356,-6.99912 l 6.68303,-0.90311 q 0.22577,5.77992 0.76764,12.5081 0.22578,2.70934 0.22578,3.92854 0,2.75449 -1.39983,4.51556 -1.39982,1.76107 -3.47698,2.52871 -2.032,0.76765 -4.15431,0.76765 z m -1.44498,-3.56729 q 1.67076,0 2.79965,-0.99343 1.12889,-0.99342 1.12889,-3.20604 0,-1.35467 -0.27094,-3.79307 -0.45155,-5.14774 -0.58702,-6.90881 -1.08373,3.56729 -3.6576,8.53441 1.03857,0.54186 1.03857,1.58044 0,0.85796 -0.58702,1.53529 -0.54187,0.67734 -1.39982,0.67734 -0.94827,0 -1.2192,-0.58702 0,1.6256 0.63218,2.39324 0.67733,0.76765 2.12231,0.76765 z"
       id="text1"
       aria-label="Notes" />
  </g>
</svg>
